<mxfile host="app.diagrams.net" agent="Mozilla/5.0 (Windows NT 10.0; Win64; x64) AppleWebKit/537.36 (KHTML, like Gecko) Chrome/139.0.0.0 Safari/537.36" version="28.1.1">
  <diagram name="Page-1" id="9Lam-trc74bx5bNG_Ngb">
    <mxGraphModel dx="1213" dy="730" grid="1" gridSize="10" guides="1" tooltips="1" connect="1" arrows="1" fold="1" page="1" pageScale="1" pageWidth="827" pageHeight="1169" math="0" shadow="0">
      <root>
        <mxCell id="0" />
        <mxCell id="1" parent="0" />
        <mxCell id="uOnlpCh-BO31i1ffsjsD-7" value="CDSE" style="ellipse;shape=cloud;whiteSpace=wrap;html=1;" vertex="1" parent="1">
          <mxGeometry x="180" y="210" width="120" height="80" as="geometry" />
        </mxCell>
        <mxCell id="uOnlpCh-BO31i1ffsjsD-11" value="Sentinel-1" style="ellipse;shape=cloud;whiteSpace=wrap;html=1;" vertex="1" parent="1">
          <mxGeometry x="40" y="110" width="100" height="60" as="geometry" />
        </mxCell>
        <mxCell id="uOnlpCh-BO31i1ffsjsD-12" value="Sentinel-2" style="ellipse;shape=cloud;whiteSpace=wrap;html=1;" vertex="1" parent="1">
          <mxGeometry x="40" y="180" width="100" height="60" as="geometry" />
        </mxCell>
        <mxCell id="uOnlpCh-BO31i1ffsjsD-13" value="Sentinel-3" style="ellipse;shape=cloud;whiteSpace=wrap;html=1;" vertex="1" parent="1">
          <mxGeometry x="40" y="250" width="100" height="60" as="geometry" />
        </mxCell>
        <mxCell id="uOnlpCh-BO31i1ffsjsD-14" value="Sentinel-5P" style="ellipse;shape=cloud;whiteSpace=wrap;html=1;" vertex="1" parent="1">
          <mxGeometry x="40" y="320" width="100" height="60" as="geometry" />
        </mxCell>
        <mxCell id="uOnlpCh-BO31i1ffsjsD-17" value="ULake" style="shape=cylinder3;whiteSpace=wrap;html=1;boundedLbl=1;backgroundOutline=1;size=15;" vertex="1" parent="1">
          <mxGeometry x="760" y="210" width="60" height="80" as="geometry" />
        </mxCell>
        <mxCell id="uOnlpCh-BO31i1ffsjsD-24" value="" style="swimlane;startSize=0;" vertex="1" parent="1">
          <mxGeometry x="320" y="95" width="400" height="310" as="geometry" />
        </mxCell>
        <mxCell id="uOnlpCh-BO31i1ffsjsD-25" value="ETL pipeline" style="text;html=1;align=center;verticalAlign=middle;resizable=0;points=[];autosize=1;strokeColor=none;fillColor=none;" vertex="1" parent="uOnlpCh-BO31i1ffsjsD-24">
          <mxGeometry x="155" y="10" width="90" height="30" as="geometry" />
        </mxCell>
        <mxCell id="uOnlpCh-BO31i1ffsjsD-40" style="edgeStyle=orthogonalEdgeStyle;rounded=0;orthogonalLoop=1;jettySize=auto;html=1;entryX=0.5;entryY=0;entryDx=0;entryDy=0;" edge="1" parent="uOnlpCh-BO31i1ffsjsD-24" source="uOnlpCh-BO31i1ffsjsD-19" target="uOnlpCh-BO31i1ffsjsD-20">
          <mxGeometry relative="1" as="geometry" />
        </mxCell>
        <mxCell id="uOnlpCh-BO31i1ffsjsD-19" value="Data extraction" style="ellipse;whiteSpace=wrap;html=1;" vertex="1" parent="uOnlpCh-BO31i1ffsjsD-24">
          <mxGeometry x="155" y="40" width="90" height="50" as="geometry" />
        </mxCell>
        <mxCell id="uOnlpCh-BO31i1ffsjsD-41" style="edgeStyle=orthogonalEdgeStyle;rounded=0;orthogonalLoop=1;jettySize=auto;html=1;" edge="1" parent="uOnlpCh-BO31i1ffsjsD-24" source="uOnlpCh-BO31i1ffsjsD-20" target="uOnlpCh-BO31i1ffsjsD-21">
          <mxGeometry relative="1" as="geometry" />
        </mxCell>
        <mxCell id="uOnlpCh-BO31i1ffsjsD-20" value="Data transformation" style="ellipse;whiteSpace=wrap;html=1;" vertex="1" parent="uOnlpCh-BO31i1ffsjsD-24">
          <mxGeometry x="155" y="125" width="90" height="50" as="geometry" />
        </mxCell>
        <mxCell id="uOnlpCh-BO31i1ffsjsD-21" value="Data loading" style="ellipse;whiteSpace=wrap;html=1;" vertex="1" parent="uOnlpCh-BO31i1ffsjsD-24">
          <mxGeometry x="155" y="210" width="90" height="50" as="geometry" />
        </mxCell>
        <mxCell id="uOnlpCh-BO31i1ffsjsD-18" value="Source Authentication" style="ellipse;whiteSpace=wrap;html=1;" vertex="1" parent="uOnlpCh-BO31i1ffsjsD-24">
          <mxGeometry x="300" y="40" width="90" height="50" as="geometry" />
        </mxCell>
        <mxCell id="uOnlpCh-BO31i1ffsjsD-29" style="edgeStyle=orthogonalEdgeStyle;rounded=0;orthogonalLoop=1;jettySize=auto;html=1;exitX=0.5;exitY=1;exitDx=0;exitDy=0;" edge="1" parent="uOnlpCh-BO31i1ffsjsD-24" source="uOnlpCh-BO31i1ffsjsD-20" target="uOnlpCh-BO31i1ffsjsD-20">
          <mxGeometry relative="1" as="geometry" />
        </mxCell>
        <mxCell id="uOnlpCh-BO31i1ffsjsD-22" value="Lake Authentication" style="ellipse;whiteSpace=wrap;html=1;" vertex="1" parent="uOnlpCh-BO31i1ffsjsD-24">
          <mxGeometry x="10" y="210" width="90" height="50" as="geometry" />
        </mxCell>
        <mxCell id="uOnlpCh-BO31i1ffsjsD-43" value="" style="endArrow=classic;html=1;rounded=0;exitX=0;exitY=0.5;exitDx=0;exitDy=0;entryX=0.5;entryY=1;entryDx=0;entryDy=0;" edge="1" parent="uOnlpCh-BO31i1ffsjsD-24" source="uOnlpCh-BO31i1ffsjsD-21" target="uOnlpCh-BO31i1ffsjsD-22">
          <mxGeometry relative="1" as="geometry">
            <mxPoint x="40" y="280" as="sourcePoint" />
            <mxPoint x="140" y="280" as="targetPoint" />
            <Array as="points">
              <mxPoint x="120" y="235" />
              <mxPoint x="120" y="290" />
              <mxPoint x="55" y="290" />
            </Array>
          </mxGeometry>
        </mxCell>
        <mxCell id="uOnlpCh-BO31i1ffsjsD-44" value="&amp;lt;&amp;lt;Include&amp;gt;&amp;gt;" style="edgeLabel;resizable=0;html=1;;align=center;verticalAlign=middle;" connectable="0" vertex="1" parent="uOnlpCh-BO31i1ffsjsD-43">
          <mxGeometry relative="1" as="geometry" />
        </mxCell>
        <mxCell id="uOnlpCh-BO31i1ffsjsD-45" value="" style="endArrow=classic;html=1;rounded=0;exitX=1;exitY=0.5;exitDx=0;exitDy=0;entryX=0.5;entryY=1;entryDx=0;entryDy=0;" edge="1" parent="uOnlpCh-BO31i1ffsjsD-24" source="uOnlpCh-BO31i1ffsjsD-19" target="uOnlpCh-BO31i1ffsjsD-18">
          <mxGeometry relative="1" as="geometry">
            <mxPoint x="295" y="160" as="sourcePoint" />
            <mxPoint x="240" y="160" as="targetPoint" />
            <Array as="points">
              <mxPoint x="280" y="65" />
              <mxPoint x="280" y="120" />
              <mxPoint x="345" y="120" />
            </Array>
          </mxGeometry>
        </mxCell>
        <mxCell id="uOnlpCh-BO31i1ffsjsD-46" value="&amp;lt;&amp;lt;Include&amp;gt;&amp;gt;" style="edgeLabel;resizable=0;html=1;;align=center;verticalAlign=middle;" connectable="0" vertex="1" parent="uOnlpCh-BO31i1ffsjsD-45">
          <mxGeometry relative="1" as="geometry" />
        </mxCell>
        <mxCell id="uOnlpCh-BO31i1ffsjsD-34" value="" style="endArrow=classic;html=1;rounded=0;exitX=0.96;exitY=0.7;exitDx=0;exitDy=0;exitPerimeter=0;entryX=0.07;entryY=0.4;entryDx=0;entryDy=0;entryPerimeter=0;" edge="1" parent="1" source="uOnlpCh-BO31i1ffsjsD-11" target="uOnlpCh-BO31i1ffsjsD-7">
          <mxGeometry width="50" height="50" relative="1" as="geometry">
            <mxPoint x="390" y="400" as="sourcePoint" />
            <mxPoint x="440" y="350" as="targetPoint" />
          </mxGeometry>
        </mxCell>
        <mxCell id="uOnlpCh-BO31i1ffsjsD-35" value="" style="endArrow=classic;html=1;rounded=0;exitX=0.96;exitY=0.7;exitDx=0;exitDy=0;exitPerimeter=0;entryX=0.07;entryY=0.4;entryDx=0;entryDy=0;entryPerimeter=0;" edge="1" parent="1" source="uOnlpCh-BO31i1ffsjsD-12" target="uOnlpCh-BO31i1ffsjsD-7">
          <mxGeometry width="50" height="50" relative="1" as="geometry">
            <mxPoint x="200" y="340" as="sourcePoint" />
            <mxPoint x="252" y="430" as="targetPoint" />
          </mxGeometry>
        </mxCell>
        <mxCell id="uOnlpCh-BO31i1ffsjsD-36" value="" style="endArrow=classic;html=1;rounded=0;exitX=0.96;exitY=0.7;exitDx=0;exitDy=0;exitPerimeter=0;entryX=0.07;entryY=0.4;entryDx=0;entryDy=0;entryPerimeter=0;" edge="1" parent="1" source="uOnlpCh-BO31i1ffsjsD-13" target="uOnlpCh-BO31i1ffsjsD-7">
          <mxGeometry width="50" height="50" relative="1" as="geometry">
            <mxPoint x="190" y="370" as="sourcePoint" />
            <mxPoint x="180" y="240" as="targetPoint" />
          </mxGeometry>
        </mxCell>
        <mxCell id="uOnlpCh-BO31i1ffsjsD-37" value="" style="endArrow=classic;html=1;rounded=0;exitX=0.96;exitY=0.7;exitDx=0;exitDy=0;exitPerimeter=0;entryX=0.07;entryY=0.4;entryDx=0;entryDy=0;entryPerimeter=0;" edge="1" parent="1" source="uOnlpCh-BO31i1ffsjsD-14" target="uOnlpCh-BO31i1ffsjsD-7">
          <mxGeometry width="50" height="50" relative="1" as="geometry">
            <mxPoint x="230" y="470" as="sourcePoint" />
            <mxPoint x="282" y="560" as="targetPoint" />
          </mxGeometry>
        </mxCell>
        <mxCell id="uOnlpCh-BO31i1ffsjsD-38" value="" style="endArrow=classic;html=1;rounded=0;exitX=0.875;exitY=0.5;exitDx=0;exitDy=0;exitPerimeter=0;entryX=0;entryY=0.5;entryDx=0;entryDy=0;" edge="1" parent="1" source="uOnlpCh-BO31i1ffsjsD-7" target="uOnlpCh-BO31i1ffsjsD-19">
          <mxGeometry width="50" height="50" relative="1" as="geometry">
            <mxPoint x="260" y="470" as="sourcePoint" />
            <mxPoint x="312" y="560" as="targetPoint" />
          </mxGeometry>
        </mxCell>
        <mxCell id="uOnlpCh-BO31i1ffsjsD-42" style="edgeStyle=orthogonalEdgeStyle;rounded=0;orthogonalLoop=1;jettySize=auto;html=1;" edge="1" parent="1" source="uOnlpCh-BO31i1ffsjsD-21" target="uOnlpCh-BO31i1ffsjsD-17">
          <mxGeometry relative="1" as="geometry" />
        </mxCell>
      </root>
    </mxGraphModel>
  </diagram>
</mxfile>
